<svg width="58" height="47" viewBox="0 0 58 47" fill="none" xmlns="http://www.w3.org/2000/svg">
<rect x="56.9923" y="46.9302" width="57" height="46" rx="12" transform="rotate(-179.059 56.9923 46.9302)" fill="white"/>
<path d="M26.6797 12.628L15.5529 22.8951L25.7621 34.0751C25.853 34.2057 25.9709 34.3153 26.1079 34.3964C26.2449 34.4775 26.3976 34.5282 26.5559 34.5451C26.7142 34.562 26.8743 34.5448 27.0253 34.4944C27.1763 34.4441 27.3147 34.3619 27.4312 34.2535C27.5477 34.145 27.6395 34.0128 27.7005 33.8657C27.7614 33.7187 27.79 33.5602 27.7844 33.4012C27.7788 33.2421 27.7391 33.0861 27.668 32.9437C27.5968 32.8013 27.4959 32.6758 27.3721 32.5758L19.7348 24.1861L40.971 25.0948C41.2654 25.1074 41.5527 25.0025 41.7698 24.8032C41.9869 24.6039 42.1159 24.3266 42.1285 24.0322C42.1411 23.7378 42.0363 23.4504 41.837 23.2333C41.6377 23.0162 41.3604 22.8872 41.0659 22.8746L19.8298 21.966L28.1558 14.2593C28.3723 14.0591 28.5004 13.7812 28.512 13.4865C28.5235 13.1919 28.4176 12.9048 28.2174 12.6882C28.0173 12.4717 27.7393 12.3436 27.4447 12.332C27.1501 12.3205 26.8629 12.4264 26.6464 12.6266L26.6797 12.628Z" fill="black"/>
</svg>
