<svg width="57" height="46" viewBox="0 0 57 46" fill="none" xmlns="http://www.w3.org/2000/svg">
<rect width="57" height="46" rx="12" fill="white"/>
<path d="M30.8723 33.7995L41.8289 23.351L31.4374 12.3403C31.3444 12.2111 31.2246 12.1035 31.0864 12.0247C30.9481 11.9458 30.7945 11.8976 30.636 11.8833C30.4774 11.869 30.3177 11.8889 30.1675 11.9417C30.0173 11.9945 29.8803 12.0789 29.7656 12.1893C29.6509 12.2997 29.5613 12.4334 29.5027 12.5814C29.4442 12.7295 29.4182 12.8883 29.4264 13.0473C29.4346 13.2063 29.4769 13.3616 29.5504 13.5028C29.6239 13.644 29.7268 13.7678 29.8523 13.8657L37.6263 22.1288L16.3781 21.5692C16.0835 21.5614 15.7979 21.671 15.5842 21.8738C15.3704 22.0767 15.2459 22.3561 15.2381 22.6507C15.2304 22.9453 15.34 23.2309 15.5428 23.4446C15.7456 23.6584 16.025 23.7829 16.3196 23.7906L37.5678 24.3503L29.3696 32.1927C29.1564 32.3964 29.0329 32.6764 29.0261 32.9712C29.0194 33.266 29.1301 33.5513 29.3338 33.7645C29.5374 33.9777 29.8175 34.1013 30.1122 34.108C30.407 34.1147 30.6924 34.0041 30.9056 33.8004L30.8723 33.7995Z" fill="black"/>
</svg>
